<?xml version="1.0" standalone="no"?>
<!DOCTYPE svg PUBLIC "-//W3C//DTD SVG 20010904//EN"
 "http://www.w3.org/TR/2001/REC-SVG-20010904/DTD/svg10.dtd">
<svg version="1.0" xmlns="http://www.w3.org/2000/svg"
 width="16.000000pt" height="16.000000pt" viewBox="0 0 16.000000 16.000000"
 preserveAspectRatio="xMidYMid meet">

<g transform="translate(0.000000,16.000000) scale(0.100000,-0.100000)"
fill="#000000" stroke="none">
<path d="M20 80 c0 -22 5 -40 10 -40 6 0 10 6 10 14 0 7 9 16 20 19 15 4 20 0
20 -14 0 -10 5 -19 10 -19 6 0 10 7 10 15 0 8 5 15 10 15 6 0 10 -7 10 -15 0
-8 5 -15 10 -15 6 0 10 18 10 40 0 22 -4 40 -10 40 -5 0 -10 -7 -10 -15 0 -8
-4 -15 -10 -15 -5 0 -10 7 -10 15 0 8 -4 15 -10 15 -5 0 -10 -5 -10 -12 0 -9
-3 -9 -12 0 -7 7 -20 12 -30 12 -14 0 -18 -8 -18 -40z"/>
</g>
</svg>
